# Blender v2.74 (sub 0) OBJ File: 'handgun.blend'
# www.blender.org
mtllib handgun.mtl
o handgun.gr2
v 0.006714 -0.080805 0.099015
v 0.011379 -0.035511 0.083466
v 0.013080 -0.087241 0.070290
v -0.006714 -0.080805 0.099015
v -0.013080 -0.025142 0.070290
v 0.038931 0.305024 -0.019729
v 0.038931 0.419416 -0.019729
v 0.038931 0.419416 -0.052057
v -0.038931 0.305024 -0.019729
v -0.038931 0.463910 -0.052057
v 0.008176 0.502488 0.021183
v -0.008176 0.502488 0.021183
v -0.008176 0.501243 0.006945
v 0.013080 0.422582 0.053002
v -0.013080 0.422582 0.053002
v 0.013080 0.438067 0.081553
v -0.013080 0.416503 0.072295
v -0.013080 0.438067 0.081553
v -0.013080 -0.087241 0.070290
v -0.029493 0.148719 -0.019729
v 0.026627 0.305024 -0.020935
v 0.026627 0.148719 -0.020935
v -0.026627 0.148719 -0.020935
v -0.026627 0.305024 -0.020935
v 0.013080 0.327702 -0.147328
v 0.013080 0.208090 -0.147328
v 0.029493 0.148719 -0.019729
v 0.038931 0.148719 -0.019729
v -0.029493 -0.079016 -0.019729
v -0.038931 0.148719 -0.019729
v 0.038931 0.148719 -0.052057
v 0.006540 0.262061 -0.114792
v -0.006540 0.262061 -0.114792
v -0.009810 0.280622 -0.088589
v 0.009810 0.280622 -0.088589
v -0.013080 0.283726 -0.052057
v 0.013080 0.283726 -0.052057
v -0.009810 0.299026 -0.099215
v 0.013080 0.312061 -0.052057
v 0.000000 0.247711 -0.127245
v -0.006540 0.271168 -0.125645
v -0.013080 0.312061 -0.052057
v 0.009810 0.299026 -0.099215
v 0.006540 0.271168 -0.125645
v 0.038931 0.148719 -0.115809
v 0.000000 0.148719 -0.058802
v -0.038931 0.148719 -0.052057
v 0.029493 0.454896 -0.019729
v -0.038931 0.454896 -0.019729
v -0.029493 0.454896 -0.019729
v 0.000000 0.469746 -0.058407
v 0.038931 0.454896 -0.019729
v -0.029493 0.419416 -0.019729
v -0.038931 0.419416 -0.019729
v -0.037150 0.316211 -0.065400
v -0.032753 0.320398 -0.122166
v -0.032753 0.413050 -0.096723
v -0.028123 0.444219 -0.308191
v -0.028123 0.351974 -0.332745
v 0.029493 0.419416 -0.019729
v 0.029493 0.446141 0.061682
v 0.029493 0.419416 0.068635
v 0.013080 0.445114 -0.015641
v 0.013080 0.469381 0.008596
v 0.008176 0.501243 0.006945
v -0.013080 0.465926 0.044106
v 0.013080 0.484079 0.026112
v 0.013080 0.462696 0.055219
v -0.013080 0.436764 0.051827
v -0.013080 0.447998 0.037704
v -0.013080 0.462696 0.055219
v -0.013080 0.484079 0.026112
v -0.013080 0.424945 0.004554
v -0.013080 0.445114 -0.015641
v -0.013080 0.449212 0.028791
v -0.013080 0.469381 0.008596
v -0.029493 0.305024 0.068635
v 0.029493 0.305024 -0.019729
v -0.029493 0.148719 0.068635
v -0.013080 0.327702 -0.147328
v -0.009755 0.166597 -0.052057
v -0.013080 0.208090 -0.147328
v -0.013080 0.194932 -0.052057
v -0.009755 0.327702 -0.170193
v -0.009755 0.197835 -0.170193
v -0.009755 0.179755 -0.147328
v 0.009755 0.166597 -0.052057
v 0.013080 0.194932 -0.052057
v 0.009755 0.179755 -0.147328
v 0.009755 0.197835 -0.170193
v 0.009755 0.327702 -0.170193
v 0.000000 -0.101882 -0.028477
v 0.032753 0.413050 -0.096723
v 0.032753 0.457967 -0.246653
v 0.032753 0.351417 -0.258930
v 0.032753 0.320398 -0.122166
v -0.029493 0.419416 0.068635
v -0.029493 0.305024 -0.019729
v 0.013080 0.424945 0.004554
v 0.013080 0.465926 0.044106
v 0.013080 0.449212 0.028791
v 0.013080 0.447998 0.037704
v 0.013080 0.416503 0.072295
v 0.013080 0.436764 0.051827
v 0.013080 -0.025142 0.070290
v -0.011379 -0.035511 0.083466
v 0.026627 0.305024 0.057257
v 0.026627 0.148719 0.057257
v 0.000000 0.148719 0.065688
v -0.026627 0.148719 0.057257
v -0.026627 0.305024 0.057257
v 0.000000 0.305024 0.065688
v 0.038931 -0.079016 -0.052057
v 0.038931 -0.079016 -0.019729
v -0.038931 -0.079016 -0.019729
v 0.000000 -0.079016 -0.028477
v -0.038931 -0.079016 -0.052057
v 0.000000 -0.079016 -0.058802
v 0.000000 -0.079016 -0.091191
v 0.038931 -0.079016 -0.084445
v 0.000000 0.460732 -0.019729
v 0.000000 0.451977 0.061682
v -0.029493 0.446141 0.061682
v 0.038931 0.463910 -0.052057
v -0.038931 0.419416 -0.052057
v 0.000000 0.427416 -0.058407
v 0.028123 0.351974 -0.332745
v 0.028123 0.444219 -0.308191
v 0.000000 0.346237 -0.343712
v 0.000000 0.450611 -0.319158
v 0.029493 -0.101882 -0.019729
v -0.029493 -0.101882 -0.019729
v 0.000000 -0.101882 0.074378
v 0.000000 0.148719 -0.122555
v -0.038931 0.148719 -0.115809
v -0.038931 -0.079016 -0.084445
v -0.029493 -0.101882 0.068635
v 0.029493 -0.079016 0.068635
v 0.029493 -0.079016 -0.019729
v 0.000000 0.419443 -0.096723
v -0.032753 0.457967 -0.246653
v 0.000000 0.464359 -0.246653
v 0.037150 0.316211 -0.065400
v 0.000000 0.310660 -0.072208
v 0.000000 0.314661 -0.122166
v -0.032753 0.351417 -0.258930
v 0.000000 0.345679 -0.258930
v -0.038931 0.284042 -0.052057
v 0.000000 0.278304 -0.058802
v 0.038931 0.284042 -0.052057
v 0.029493 -0.101882 0.068635
v 0.000000 -0.079016 0.074378
v -0.029493 -0.079016 0.068635
v 0.000000 0.148719 0.074378
v 0.029493 0.148719 0.068635
v 0.000000 0.419416 0.074378
v 0.029493 0.305024 0.068635
v 0.000000 0.305024 0.074378
vt 0.951222 0.198557
vt 0.824007 0.259745
vt 0.826568 0.172536
vt 0.605020 0.035347
vt 0.389308 0.028837
vt 0.441212 0.009026
vt 0.387309 0.265327
vt 0.603123 0.265336
vt 0.438592 0.286694
vt 0.889354 0.946351
vt 0.926387 0.891766
vt 0.931973 0.949039
vt 0.907247 0.874273
vt 0.972746 0.874267
vt 0.948036 0.949038
vt 0.953610 0.891764
vt 0.990654 0.946341
vt 0.421187 0.081322
vt 0.603460 0.086875
vt 0.675915 0.037520
vt 0.659927 0.088562
vt 0.420759 0.213819
vt 0.603125 0.213804
vt 0.674058 0.265337
vt 0.659693 0.213795
vt 0.209183 0.029287
vt 0.219328 0.017678
vt 0.219329 0.029286
vt 0.209182 0.017678
vt 0.315836 0.014190
vt 0.301475 0.032762
vt 0.301475 0.014190
vt 0.315836 0.032762
vt 0.284815 0.032762
vt 0.284815 0.014191
vt 0.955651 0.991089
vt 0.924357 0.991089
vt 0.407332 0.381932
vt 0.639593 0.294281
vt 0.639593 0.381932
vt 0.407332 0.294281
vt 0.391954 0.851521
vt 0.391954 0.984414
vt 0.645970 0.984414
vt 0.645970 0.851521
vt 0.391954 0.760064
vt 0.645970 0.760064
vt 0.645970 0.638816
vt 0.391954 0.638816
vt 0.512650 0.618502
vt 0.629981 0.592840
vt 0.629981 0.618502
vt 0.512650 0.592840
vt 0.418310 0.618502
vt 0.418310 0.592840
vt 0.379560 0.626195
vt 0.088845 0.574078
vt 0.381217 0.614079
vt 0.087188 0.586195
vt 0.962144 0.616985
vt 0.643647 0.597754
vt 0.962146 0.597754
vt 0.643646 0.616985
vt 0.643641 0.284815
vt 0.962141 0.304046
vt 0.643642 0.304046
vt 0.962139 0.284815
vt 0.087188 0.294936
vt 0.381218 0.267058
vt 0.088846 0.307053
vt 0.379561 0.254941
vt 0.919133 0.369659
vt 0.643903 0.370176
vt 0.643906 0.531625
vt 0.919137 0.532138
vt 0.890491 0.718317
vt 0.906393 0.719370
vt 0.898364 0.733746
vt 0.891260 0.676109
vt 0.916140 0.677545
vt 0.919496 0.633350
vt 0.887170 0.633369
vt 0.984670 0.660105
vt 0.970700 0.663916
vt 0.965333 0.643683
vt 0.990804 0.707003
vt 0.967546 0.705695
vt 0.954578 0.757673
vt 0.986228 0.762543
vt 0.921470 0.727827
vt 0.941507 0.686641
vt 0.954517 0.632170
vt 0.924620 0.740354
vt 0.942646 0.701368
vt 0.955266 0.659636
vt 0.399106 0.490741
vt 0.476721 0.440567
vt 0.484059 0.492599
vt 0.396520 0.440567
vt 0.484059 0.388534
vt 0.399106 0.390393
vt 0.659698 0.103570
vt 0.603025 0.101927
vt 0.420732 0.096362
vt 0.659700 0.198769
vt 0.713207 0.213728
vt 0.725436 0.151170
vt 0.662169 0.151170
vt 0.713261 0.088615
vt 0.603126 0.198759
vt 0.420760 0.198774
vt 0.985872 0.094073
vt 0.934733 0.009496
vt 0.981161 0.009537
vt 0.949688 0.086216
vt 0.821885 0.026272
vt 0.825288 0.113458
vt 0.775797 0.098478
vt 0.761865 0.022083
vt 0.865560 0.755957
vt 0.824797 0.631972
vt 0.878892 0.631981
vt 0.824924 0.766554
vt 0.650530 0.631962
vt 0.650271 0.766490
vt 0.186531 0.014202
vt 0.162187 0.032779
vt 0.162183 0.014207
vt 0.186536 0.032773
vt 0.232857 0.014194
vt 0.232859 0.032766
vt 0.251003 0.014191
vt 0.251004 0.032763
vt 0.259219 0.014191
vt 0.259219 0.032763
vt 0.331411 0.249786
vt 0.309946 0.195332
vt 0.343592 0.209294
vt 0.291916 0.213546
vt 0.266594 0.253270
vt 0.259438 0.212689
vt 0.245739 0.204038
vt 0.247527 0.244852
vt 0.201704 0.249060
vt 0.189195 0.146901
vt 0.240385 0.142460
vt 0.194549 0.208479
vt 0.173207 0.268831
vt 0.155010 0.250615
vt 0.527057 0.504698
vt 0.491888 0.497850
vt 0.562227 0.497850
vt 0.491888 0.392479
vt 0.562227 0.392479
vt 0.638340 0.497850
vt 0.603170 0.504698
vt 0.568001 0.497850
vt 0.568001 0.392479
vt 0.638340 0.392479
vt 0.513968 0.540148
vt 0.629040 0.519128
vt 0.631597 0.540148
vt 0.510126 0.519128
vt 0.493600 0.540148
vt 0.407050 0.540148
vt 0.414227 0.519128
vt 0.513968 0.565886
vt 0.631597 0.565886
vt 0.493600 0.565886
vt 0.407050 0.565886
vt 0.414228 0.586906
vt 0.510127 0.586906
vt 0.629041 0.586906
vt 0.094522 0.348558
vt 0.099193 0.390152
vt 0.386895 0.308559
vt 0.083032 0.056598
vt 0.149586 0.020461
vt 0.143666 0.069890
vt 0.083032 0.012020
vt 0.022397 0.069890
vt 0.016478 0.020461
vt 0.764029 0.264508
vt 0.777230 0.187968
vt 0.937017 0.275420
vt 0.987327 0.190346
vt 0.983443 0.274924
vt 0.824797 0.992885
vt 0.865560 0.868899
vt 0.878893 0.992875
vt 0.824924 0.858302
vt 0.650530 0.992894
vt 0.650271 0.858366
vt 0.313945 0.049324
vt 0.258340 0.104519
vt 0.253939 0.054609
vt 0.318346 0.099234
vt 0.354104 0.049324
vt 0.347694 0.004343
vt 0.368256 0.018733
vt 0.357820 0.094039
vt 0.369126 0.110924
vt 0.328967 0.110924
vt 0.335286 0.141966
vt 0.376751 0.173757
vt 0.339950 0.192310
vt 0.320856 0.162364
vt 0.924351 0.865863
vt 0.955645 0.865863
vt 0.391954 0.807537
vt 0.645970 0.807537
vt 0.386894 0.572576
vt 0.099193 0.490981
vt 0.094522 0.532575
vt 0.013055 0.389653
vt 0.055069 0.389536
vt 0.012931 0.401999
vt 0.024144 0.440567
vt 0.062943 0.440567
vt 0.102702 0.440567
vt 0.055069 0.491598
vt 0.012931 0.479135
vt 0.013055 0.491482
vt 0.996754 0.812428
vt 0.869477 0.767229
vt 0.995804 0.766846
vt 0.873702 0.812428
vt 0.869477 0.857626
vt 0.995804 0.858010
vt 0.717155 0.228114
vt 0.678646 0.264031
vt 0.678469 0.220430
vt 0.717322 0.269593
vt 0.755951 0.263720
vt 0.755777 0.220119
vt 0.737003 0.019687
vt 0.726722 0.106910
vt 0.714370 0.030245
vt 0.751769 0.105655
vt 0.083032 0.267485
vt 0.144021 0.255575
vt 0.022043 0.255575
vt 0.044301 0.855006
vt 0.010090 0.987209
vt 0.010090 0.855006
vt 0.044301 0.987209
vt 0.385021 0.987209
vt 0.385021 0.855006
vt 0.044300 0.632896
vt 0.010090 0.765099
vt 0.010090 0.632896
vt 0.044300 0.765099
vt 0.385021 0.765099
vt 0.385021 0.632896
vt 0.984991 0.141961
vt 0.953076 0.114635
vt 0.989366 0.109900
vt 0.952704 0.142064
vt 0.989574 0.173993
vt 0.953258 0.169489
vt 0.825652 0.115664
vt 0.825858 0.169251
vt 0.825449 0.142461
vt 0.774022 0.118515
vt 0.774218 0.166878
vt 0.765966 0.142728
vt 0.639850 0.149800
vt 0.597379 0.118143
vt 0.645538 0.113576
vt 0.598389 0.149975
vt 0.645835 0.185975
vt 0.597634 0.181813
vt 0.462828 0.118476
vt 0.463064 0.182529
vt 0.463592 0.150500
vt 0.392230 0.123252
vt 0.392423 0.178232
vt 0.381908 0.150778
vt 0.981776 0.450896
vt 0.988955 0.374612
vt 0.909410 0.450898
vt 0.988960 0.527181
vt 0.644329 0.450901
vt 0.010090 0.810052
vt 0.044301 0.810052
vt 0.385021 0.810052
vt 0.823166 0.812428
vt 0.649936 0.812428
vn 0.797800 0.602300 -0.024800
vn 0.791900 -0.603100 -0.095400
vn 0.728600 0.684900 0.004300
vn 0.918100 0.233400 -0.320100
vn 0.812000 -0.114300 -0.572300
vn 0.866500 -0.343500 -0.362100
vn -0.812800 -0.115500 -0.570900
vn -0.919700 0.232900 -0.315900
vn -0.867700 -0.341600 -0.361100
vn 0.670300 -0.683000 0.290000
vn 0.607400 0.424400 0.671500
vn 0.476000 -0.417600 0.773900
vn 0.503700 0.646000 0.573500
vn -0.506000 0.631700 0.587200
vn -0.483000 -0.413700 0.771700
vn -0.643400 0.399200 0.653200
vn -0.674000 -0.674800 0.300500
vn 0.707100 0.000000 0.707100
vn 0.640500 0.628000 -0.441900
vn 0.593000 0.486900 0.641300
vn -0.707100 0.000000 0.707100
vn -0.640500 0.628000 -0.441900
vn -0.593000 0.486900 0.641300
vn 0.507200 0.580900 -0.636600
vn -0.524600 0.716500 0.459800
vn 0.497000 0.730600 0.468200
vn -0.528900 0.572800 -0.626200
vn -0.780100 -0.596700 -0.188000
vn 0.582800 -0.738600 0.338800
vn -0.582800 -0.738600 0.338800
vn 0.780100 -0.596700 -0.188000
vn 0.597800 0.164500 0.784600
vn -0.597800 0.164500 0.784600
vn 0.301500 -0.301500 0.904500
vn -0.301500 0.301500 0.904500
vn 0.301500 0.301500 0.904500
vn -0.301500 -0.301500 0.904500
vn -0.806800 0.000000 -0.590800
vn -1.000000 0.000000 0.000000
vn 0.806800 0.000000 -0.590800
vn 1.000000 0.000000 0.000000
vn -0.924700 0.257100 0.280700
vn 0.756300 0.000000 0.654200
vn -0.756300 0.000000 0.654200
vn 0.924700 0.257100 0.280700
vn -0.777800 0.622600 0.086000
vn 0.777800 0.622600 0.086000
vn 0.577300 -0.577300 0.577300
vn 0.782600 -0.622300 0.014100
vn -0.782600 -0.622300 0.014100
vn -0.577300 -0.577300 0.577300
vn -0.922300 0.259100 -0.286600
vn 0.922300 0.259100 -0.286600
vn 0.730000 -0.602200 0.323100
vn -0.730000 -0.602200 0.323100
vn 0.000000 -0.920600 -0.390600
vn 0.760900 -0.632500 0.144700
vn -0.760900 -0.632500 0.144700
vn -0.741000 -0.671500 0.002100
vn 0.741000 -0.671500 0.002100
vn -0.634700 0.232600 -0.736900
vn 0.634700 0.232600 -0.736900
vn -0.648900 0.628000 -0.429500
vn 0.648900 0.628000 -0.429500
vn 0.647000 0.722200 -0.244500
vn -0.647000 0.722200 -0.244500
vn 0.615600 0.552100 -0.562400
vn 0.000000 0.747600 -0.664100
vn 0.000000 0.619100 -0.785300
vn -0.615600 0.552100 -0.562400
vn 0.364100 0.810900 0.458100
vn -0.364100 0.810900 0.458100
vn 0.000000 0.784300 -0.620300
vn 0.000000 0.985700 0.168500
vn -0.741200 -0.658500 -0.130000
vn -0.800800 0.598100 -0.031200
vn -0.792800 -0.601600 -0.097300
vn -0.729400 0.684000 0.002900
vn -0.726800 0.508100 -0.462100
vn -0.698800 -0.455200 -0.551800
vn 0.651500 0.549100 0.523500
vn 0.736200 0.109700 0.667700
vn 0.624100 -0.588100 0.514300
vn -0.808100 0.246300 -0.535000
vn 0.707100 0.499700 -0.500300
vn -0.707100 0.499700 -0.500300
vn 0.808500 0.238600 -0.537900
vn -0.790800 0.412800 0.451800
vn 0.785500 0.391200 0.479600
vn -0.768100 0.550400 0.327200
vn 0.768100 0.550400 0.327200
vn -0.658300 0.654200 0.372300
vn 0.658300 0.654200 0.372300
vn 0.000000 -0.666500 0.745500
vn -0.624100 -0.588100 0.514300
vn -0.624100 0.588100 0.514300
vn 0.000000 0.666500 0.745500
vn 0.624100 0.588100 0.514300
vn -0.580100 -0.354500 -0.733300
vn -0.654200 0.000000 -0.756300
vn -0.611500 -0.729400 -0.306600
vn -0.633600 -0.766400 -0.105800
vn 0.580100 -0.354500 -0.733300
vn 0.654200 0.000000 -0.756300
vn 0.611500 -0.729400 -0.306600
vn 0.633600 -0.766400 -0.105800
vn -0.707100 -0.707100 0.000000
vn -0.623900 -0.617800 -0.478600
vn 0.000000 -0.648300 -0.761300
vn 0.644600 -0.594000 -0.481200
vn 0.000000 -0.777000 -0.629400
vn -0.644600 -0.594000 -0.481200
vn 0.697200 -0.456300 -0.552900
vn 0.723800 0.510600 -0.464100
vn 0.740600 -0.659500 -0.128600
vn -0.651500 0.549100 0.523500
vn -0.736200 0.109700 0.667700
vn 0.000000 0.000000 -1.000000
vn 0.623900 -0.617800 -0.478600
vn 0.707100 -0.707100 0.000000
vn 0.000000 -1.000000 0.000000
vn 0.000000 -0.719700 -0.694200
vn 0.000000 0.801500 0.598000
vn 0.006000 0.615000 -0.788500
vn 0.000000 -0.588000 -0.808800
vn 0.000000 0.699300 -0.714800
vn -0.771700 0.000000 0.635900
vn 0.771700 0.000000 0.635900
vn 0.005100 0.998700 0.049500
vn 0.000000 0.999400 0.034100
vn 0.002800 -0.819800 -0.572600
vn 0.001000 -0.988500 -0.150900
vn 0.000000 -0.992700 -0.120500
vn 0.001100 -0.180200 -0.983600
vn 0.000000 0.000000 1.000000
vn 0.000000 0.180900 0.983500
usemtl Handgun_0
s 1
f 93/1/1 95/2/2 94/3/3
f 8/4/4 150/5/5 143/6/6
f 148/7/7 125/8/8 55/9/9
f 3/10/10 2/11/11 1/12/12
f 2/11/11 3/10/10 105/13/13
f 5/14/14 4/15/15 106/16/16
f 4/15/15 5/14/14 19/17/17
f 150/5/5 8/4/4 6/18/18
f 7/19/18 6/18/18 8/4/4
f 124/20/19 7/19/18 8/4/4
f 7/19/18 124/20/19 52/21/20
f 125/8/8 148/7/7 9/22/21
f 9/22/21 54/23/21 125/8/8
f 54/23/21 10/24/22 125/8/8
f 10/24/22 54/23/21 49/25/23
f 65/26/24 12/27/25 11/28/26
f 12/27/25 65/26/24 13/29/27
f 15/30/28 103/31/29 17/32/30
f 103/31/29 15/30/28 14/33/31
f 16/34/32 17/32/30 103/31/29
f 17/32/30 16/34/32 18/35/33
f 1/12/12 19/36/17 3/37/10
f 19/36/17 1/12/12 4/15/15
f 78/38/34 20/39/35 27/40/36
f 20/39/35 78/38/34 98/41/37
f 107/42/38 21/43/39 22/44/39
f 22/44/39 108/45/38 107/42/38
f 111/46/40 110/47/40 23/48/41
f 23/48/41 24/49/41 111/46/40
f 82/50/42 25/51/43 80/52/44
f 25/51/43 82/50/42 26/53/45
f 83/54/46 26/53/45 82/50/42
f 26/53/45 83/54/46 88/55/47
f 27/56/36 114/57/48 28/58/18
f 114/57/48 27/56/36 139/59/49
f 78/60/34 28/61/18 6/62/18
f 28/61/18 78/60/34 27/63/36
f 20/64/35 9/65/21 30/66/21
f 9/65/21 20/64/35 98/67/37
f 29/68/50 30/69/21 115/70/51
f 30/69/21 29/68/50 20/71/35
f 148/72/7 30/66/21 9/65/21
f 30/66/21 148/72/7 47/73/52
f 31/74/53 6/62/18 28/61/18
f 6/62/18 31/74/53 150/75/5
f 32/76/54 33/77/55 40/78/56
f 35/79/57 33/77/55 32/76/54
f 33/77/55 35/79/57 34/80/58
f 35/79/57 36/81/59 34/80/58
f 36/81/59 35/79/57 37/82/60
f 41/83/61 44/84/62 40/85/56
f 38/86/63 44/84/62 41/83/61
f 44/84/62 38/86/63 43/87/64
f 38/86/63 39/88/65 43/87/64
f 39/88/65 38/86/63 42/89/66
f 33/77/55 41/90/61 40/78/56
f 34/80/58 41/90/61 33/77/55
f 41/90/61 34/80/58 38/91/63
f 36/81/59 38/91/63 34/80/58
f 38/91/63 36/81/59 42/92/66
f 37/93/60 43/87/64 39/88/65
f 43/87/64 37/93/60 35/94/57
f 35/94/57 44/84/62 43/87/64
f 44/84/62 35/94/57 32/95/54
f 44/84/62 32/95/54 40/85/56
f 45/96/67 46/97/68 31/98/53
f 46/97/68 45/96/67 134/99/69
f 134/99/69 47/100/52 46/97/68
f 47/100/52 134/99/69 135/101/70
f 48/102/71 7/19/18 52/21/20
f 7/19/18 48/102/71 60/103/18
f 60/103/18 6/18/18 7/19/18
f 6/18/18 60/103/18 78/104/34
f 49/25/23 50/105/72 10/106/22
f 50/105/72 51/107/73 10/106/22
f 51/107/73 50/105/72 121/108/74
f 48/102/71 51/107/73 121/108/74
f 51/107/73 48/102/71 124/109/19
f 52/21/20 124/109/19 48/102/71
f 49/25/23 53/110/21 50/105/72
f 53/110/21 49/25/23 54/23/21
f 54/23/21 98/111/37 53/110/21
f 98/111/37 54/23/21 9/22/21
f 125/112/8 56/113/75 55/114/9
f 56/113/75 125/112/8 57/115/76
f 57/115/76 146/116/77 56/113/75
f 146/116/77 57/115/76 141/117/78
f 58/118/79 146/116/77 141/117/78
f 146/116/77 58/118/79 59/119/80
f 61/120/81 60/121/18 48/122/71
f 60/121/18 61/120/81 62/123/82
f 62/123/82 78/124/34 60/121/18
f 78/124/34 62/123/82 157/125/83
f 76/126/84 63/127/85 74/128/86
f 63/127/85 76/126/84 64/129/87
f 13/29/27 64/129/87 76/126/84
f 64/129/87 13/29/27 65/26/24
f 72/130/88 11/28/26 12/27/25
f 11/28/26 72/130/88 67/131/89
f 66/132/90 67/131/89 72/130/88
f 67/131/89 66/132/90 100/133/91
f 71/134/92 100/133/91 66/132/90
f 100/133/91 71/134/92 68/135/93
f 71/134/92 16/34/32 68/135/93
f 16/34/32 71/134/92 18/35/33
f 18/136/33 15/137/28 17/138/30
f 15/137/28 18/136/33 69/139/39
f 71/140/92 69/139/39 18/136/33
f 69/139/39 71/140/92 70/141/39
f 71/140/92 75/142/39 70/141/39
f 75/142/39 71/140/92 66/143/90
f 72/144/88 75/142/39 66/143/90
f 75/142/39 74/145/86 73/146/39
f 74/145/86 75/142/39 76/147/84
f 75/142/39 72/144/88 76/147/84
f 12/148/25 76/147/84 72/144/88
f 76/147/84 12/148/25 13/149/27
f 158/150/94 77/151/95 157/152/83
f 98/153/37 157/152/83 77/151/95
f 157/152/83 98/153/37 78/154/34
f 79/155/96 154/156/97 155/157/98
f 27/158/36 79/155/96 155/157/98
f 79/155/96 27/158/36 20/159/35
f 85/160/99 80/161/44 84/162/100
f 80/161/44 85/160/99 82/163/42
f 85/160/99 86/164/101 82/163/42
f 81/165/102 82/163/42 86/164/101
f 82/163/42 81/165/102 83/166/46
f 90/167/103 84/162/100 91/168/104
f 84/162/100 90/167/103 85/160/99
f 89/169/105 85/160/99 90/167/103
f 85/160/99 89/169/105 86/164/101
f 87/170/106 86/164/101 89/169/105
f 86/164/101 87/170/106 81/165/102
f 89/169/105 88/171/47 87/170/106
f 88/171/47 89/169/105 26/172/45
f 90/167/103 26/172/45 89/169/105
f 91/168/104 26/172/45 90/167/103
f 26/172/45 91/168/104 25/173/43
f 117/174/107 135/101/70 136/175/108
f 135/101/70 117/174/107 47/176/52
f 115/70/51 47/176/52 117/174/107
f 47/176/52 115/70/51 30/69/21
f 92/177/109 139/178/49 131/179/110
f 139/178/49 92/177/109 116/180/111
f 132/181/112 116/180/111 92/177/109
f 116/180/111 132/181/112 29/182/50
f 94/3/3 127/183/113 128/184/114
f 127/183/113 94/3/3 95/2/2
f 95/2/2 93/1/1 96/185/115
f 8/186/4 96/185/115 93/1/1
f 96/185/115 8/186/4 143/187/6
f 53/188/21 123/189/116 50/190/72
f 123/189/116 53/188/21 97/191/117
f 98/192/37 97/191/117 53/188/21
f 97/191/117 98/192/37 77/193/95
f 64/194/87 99/195/41 63/196/85
f 99/195/41 64/194/87 101/197/41
f 67/198/89 101/197/41 64/194/87
f 65/199/24 67/198/89 64/194/87
f 67/198/89 65/199/24 11/200/26
f 101/197/41 67/198/89 100/201/91
f 68/202/93 101/197/41 100/201/91
f 101/197/41 68/202/93 102/203/41
f 68/202/93 104/204/41 102/203/41
f 104/204/41 68/202/93 16/205/32
f 103/206/29 104/204/41 16/205/32
f 104/204/41 103/206/29 14/207/31
f 106/16/16 105/208/13 5/209/14
f 105/208/13 106/16/16 2/11/11
f 106/16/16 1/12/12 2/11/11
f 1/12/12 106/16/16 4/15/15
f 112/210/118 107/42/38 108/45/38
f 108/45/38 109/211/118 112/210/118
f 112/210/118 109/211/118 110/47/40
f 110/47/40 111/46/40 112/210/118
f 31/212/53 120/213/119 45/96/67
f 120/213/119 31/212/53 113/214/120
f 31/212/53 114/57/48 113/214/120
f 114/57/48 31/212/53 28/58/18
f 115/215/51 117/216/107 29/217/50
f 117/216/107 116/218/111 29/217/50
f 116/218/111 117/216/107 118/219/121
f 136/175/108 118/219/121 117/216/107
f 118/219/121 136/175/108 119/220/122
f 113/221/120 116/218/111 118/219/121
f 119/220/122 113/221/120 118/219/121
f 113/221/120 119/220/122 120/213/119
f 116/218/111 113/221/120 139/222/49
f 114/223/48 139/222/49 113/221/120
f 121/224/74 61/225/81 48/226/71
f 61/225/81 121/224/74 122/227/123
f 121/224/74 123/228/116 122/227/123
f 123/228/116 121/224/74 50/229/72
f 126/230/124 124/231/19 8/232/4
f 124/231/19 126/230/124 51/233/73
f 126/230/124 10/234/22 51/233/73
f 10/234/22 126/230/124 125/235/8
f 129/236/125 128/237/114 127/238/113
f 128/237/114 129/236/125 130/239/126
f 129/236/125 58/118/79 130/239/126
f 58/118/79 129/236/125 59/119/80
f 133/240/94 131/179/110 151/241/83
f 131/179/110 133/240/94 92/177/109
f 133/240/94 132/181/112 92/177/109
f 132/181/112 133/240/94 137/242/95
f 119/220/122 45/96/67 120/213/119
f 45/96/67 119/220/122 134/99/69
f 119/220/122 135/101/70 134/99/69
f 135/101/70 119/220/122 136/175/108
f 153/243/127 132/244/112 137/245/95
f 132/244/112 153/243/127 29/246/50
f 153/243/127 20/247/35 29/246/50
f 20/247/35 153/243/127 79/248/96
f 139/249/49 151/250/83 131/251/110
f 151/250/83 139/249/49 138/252/128
f 139/249/49 155/253/98 138/252/128
f 155/253/98 139/249/49 27/254/36
f 126/255/124 57/256/76 125/257/8
f 57/256/76 126/255/124 140/258/129
f 8/259/4 140/258/129 126/255/124
f 140/258/129 8/259/4 93/260/1
f 140/258/129 141/261/78 57/256/76
f 94/262/3 140/258/129 93/260/1
f 141/261/78 140/258/129 142/263/130
f 140/258/129 94/262/3 142/263/130
f 142/263/130 58/264/79 141/261/78
f 128/265/114 142/263/130 94/262/3
f 58/264/79 142/263/130 130/266/126
f 142/263/130 128/265/114 130/266/126
f 144/267/131 96/268/115 143/269/6
f 96/268/115 144/267/131 145/270/132
f 55/271/9 145/270/132 144/267/131
f 145/270/132 55/271/9 56/272/75
f 145/270/132 95/273/2 96/268/115
f 146/274/77 145/270/132 56/272/75
f 95/273/2 145/270/132 147/275/133
f 145/270/132 146/274/77 147/275/133
f 147/275/133 127/276/113 95/273/2
f 59/277/80 147/275/133 146/274/77
f 127/276/113 147/275/133 129/278/125
f 147/275/133 59/277/80 129/278/125
f 144/279/131 148/72/7 55/280/9
f 148/72/7 144/279/131 149/281/134
f 143/282/6 149/281/134 144/279/131
f 149/281/134 143/282/6 150/75/5
f 46/283/68 148/72/7 149/281/134
f 150/75/5 46/283/68 149/281/134
f 148/72/7 46/283/68 47/73/52
f 46/283/68 150/75/5 31/74/53
f 133/284/94 153/243/127 137/245/95
f 153/243/127 133/284/94 152/285/135
f 151/250/83 152/285/135 133/284/94
f 152/285/135 151/250/83 138/252/128
f 154/286/97 153/243/127 152/285/135
f 138/252/128 154/286/97 152/285/135
f 153/243/127 154/286/97 79/248/96
f 154/286/97 138/252/128 155/253/98
f 122/227/123 62/123/82 61/225/81
f 97/191/117 122/227/123 123/228/116
f 62/123/82 122/227/123 156/287/136
f 122/227/123 97/191/117 156/287/136
f 156/287/136 157/125/83 62/123/82
f 77/193/95 156/287/136 97/191/117
f 157/125/83 156/287/136 158/288/94
f 156/287/136 77/193/95 158/288/94
